<?xml version="1.0" encoding="utf-8"?>
<!-- Generator: Adobe Illustrator 28.1.0, SVG Export Plug-In . SVG Version: 6.00 Build 0)  -->
<svg version="1.1" id="Layer_1" xmlns="http://www.w3.org/2000/svg" xmlns:xlink="http://www.w3.org/1999/xlink" x="0px" y="0px"
	 viewBox="0 0 332.2 304.8" style="enable-background:new 0 0 332.2 304.8;" xml:space="preserve">
<style type="text/css">
	.st0{fill:#FFFFFF;}
	.st1{fill:#FF3D13;}
</style>
<g>
	<path class="st0" d="M0,300V0h119.3c15.6,0,29.7,1.3,42.4,3.9c12.7,2.6,24,6.4,33.7,11.4c9.8,5,18,11.1,24.8,18.2
		c6.8,7.1,11.9,15.3,15.3,24.5c3.4,9.2,5.1,19.5,5.1,30.7c0,10.6-1.6,20.2-4.7,28.6c-3.1,8.5-7.9,15.9-14.2,22.3s-14.4,11.5-24,15.5
		c-9.6,3.9-20.8,6.8-33.5,8.6v6.8c16.1,1.8,28.7,5.7,37.6,11.6c8.9,5.9,15.8,13.7,20.6,23.4c4.8,9.7,9.1,21.4,12.7,35l16.1,59.5h-76
		L163,245c-2.5-12.1-6-21.5-10.4-28.2c-4.4-6.7-10-11.3-16.8-13.9c-6.8-2.6-15.3-3.9-25.5-3.9h-42V300H0z M68.3,145h46.3
		c17.3,0,30.7-3.6,40.3-10.9c9.6-7.3,14.4-18.6,14.4-34.1c0-15.1-4.4-26.4-13.2-33.6c-8.8-7.3-22.1-10.9-39.9-10.9h-48V145z"/>
	<path class="st1" d="M295.7,304.8c-12.1,0-21.1-2.7-27-8.2c-5.9-5.5-8.9-13.9-8.9-25.3c0-11.7,3-20.3,8.9-25.7
		c5.9-5.5,14.9-8.2,27-8.2c12.3,0,21.5,2.7,27.5,8.2c6,5.5,9.1,14,9.1,25.7C332.2,293.6,320,304.8,295.7,304.8z"/>
</g>
</svg>
